{
  "accessors": [
    {
      "bufferView": 2,
      "componentType": 5126,
      "count": 365,
      "max": [
        0.2427320033311844,
        0.10488200187683105,
        0.062313999980688095
      ],
      "min": [
        -0.23668399453163147,
        -0.001322000054642558,
        -0.07947500050067902
      ],
      "type": "VEC3"
    },
    {
      "bufferView": 2,
      "byteOffset": 4380,
      "componentType": 5126,
      "count": 365,
      "max": [
        0.9242370128631592,
        0.9999203681945801,
        0.9409011006355286
      ],
      "min": [
        -1.0,
        -1.0,
        -0.9382538795471191
      ],
      "type": "VEC3"
    },
    {
      "bufferView": 3,
      "componentType": 5126,
      "count": 365,
      "max": [
        1.0,
        0.9921568632125854,
        1.0,
        1.0
      ],
      "min": [
        1.0,
        0.9921568632125854,
        1.0,
        1.0
      ],
      "type": "VEC4"
    },
    {
      "bufferView": 1,
      "componentType": 5126,
      "count": 365,
      "max": [
        0.9340819716453552,
        2.859375
      ],
      "min": [
        0.3879390060901642,
        -2.605468988418579
      ],
      "type": "VEC2"
    },
    {
      "bufferView": 0,
      "componentType": 5125,
      "count": 1272,
      "type": "SCALAR"
    },
    {
      "bufferView": 2,
      "byteOffset": 8760,
      "componentType": 5126,
      "count": 603,
      "max": [
        0.2414499968290329,
        0.1041800007224083,
        0.061337001621723175
      ],
      "min": [
        -0.23653100430965424,
        -0.0011699999449774623,
        -0.07849899679422379
      ],
      "type": "VEC3"
    },
    {
      "bufferView": 2,
      "byteOffset": 15996,
      "componentType": 5126,
      "count": 603,
      "max": [
        1.0,
        1.0,
        0.9514089226722717
      ],
      "min": [
        -1.0,
        -1.0,
        -0.9993708729743958
      ],
      "type": "VEC3"
    },
    {
      "bufferView": 3,
      "byteOffset": 5840,
      "componentType": 5126,
      "count": 603,
      "max": [
        1.0,
        0.9490196108818054,
        1.0,
        1.0
      ],
      "min": [
        1.0,
        0.9490196108818054,
        1.0,
        1.0
      ],
      "type": "VEC4"
    },
    {
      "bufferView": 1,
      "byteOffset": 2920,
      "componentType": 5126,
      "count": 603,
      "max": [
        0.20544399321079254,
        0.20458999276161194
      ],
      "min": [
        0.00010399999882793054,
        0.0
      ],
      "type": "VEC2"
    },
    {
      "bufferView": 0,
      "byteOffset": 5088,
      "componentType": 5125,
      "count": 2268,
      "type": "SCALAR"
    },
    {
      "bufferView": 2,
      "byteOffset": 23232,
      "componentType": 5126,
      "count": 415,
      "max": [
        0.24245700240135193,
        0.10469900071620941,
        0.06200899928808212
      ],
      "min": [
        -0.23653100430965424,
        -0.0011699999449774623,
        -0.07916999608278275
      ],
      "type": "VEC3"
    },
    {
      "bufferView": 2,
      "byteOffset": 28212,
      "componentType": 5126,
      "count": 415,
      "max": [
        0.9930973649024963,
        0.9999575018882751,
        0.9989290237426758
      ],
      "min": [
        -0.9999999403953552,
        -1.0,
        -0.9983710646629333
      ],
      "type": "VEC3"
    },
    {
      "bufferView": 3,
      "byteOffset": 15488,
      "componentType": 5126,
      "count": 415,
      "max": [
        1.0,
        0.9411764740943909,
        1.0,
        1.0
      ],
      "min": [
        1.0,
        0.9411764740943909,
        1.0,
        1.0
      ],
      "type": "VEC4"
    },
    {
      "bufferView": 1,
      "byteOffset": 7744,
      "componentType": 5126,
      "count": 415,
      "max": [
        0.1198119968175888,
        0.12158200144767761
      ],
      "min": [
        0.0008190000080503523,
        0.01464799977838993
      ],
      "type": "VEC2"
    },
    {
      "bufferView": 0,
      "byteOffset": 14160,
      "componentType": 5125,
      "count": 1836,
      "type": "SCALAR"
    },
    {
      "bufferView": 2,
      "byteOffset": 33192,
      "componentType": 5126,
      "count": 2005,
      "max": [
        0.6074579954147339,
        0.25613200664520264,
        0.16531400382518768
      ],
      "min": [
        -0.376336008310318,
        0.05937900021672249,
        -0.17869099974632263
      ],
      "type": "VEC3"
    },
    {
      "bufferView": 2,
      "byteOffset": 57252,
      "componentType": 5126,
      "count": 2005,
      "max": [
        0.9844045639038086,
        0.9999774098396301,
        0.9970584511756897
      ],
      "min": [
        -0.9999464750289917,
        -0.9998934268951416,
        -0.9970584511756897
      ],
      "type": "VEC3"
    },
    {
      "bufferView": 3,
      "byteOffset": 22128,
      "componentType": 5126,
      "count": 2005,
      "max": [
        1.0,
        0.95686274766922,
        1.0,
        1.0
      ],
      "min": [
        1.0,
        0.95686274766922,
        1.0,
        1.0
      ],
      "type": "VEC4"
    },
    {
      "bufferView": 1,
      "byteOffset": 11064,
      "componentType": 5126,
      "count": 2005,
      "max": [
        0.9995120167732239,
        0.9994999766349792
      ],
      "min": [
        0.0005000000237487257,
        0.0004879999905824661
      ],
      "type": "VEC2"
    },
    {
      "bufferView": 0,
      "byteOffset": 21504,
      "componentType": 5125,
      "count": 7164,
      "type": "SCALAR"
    }
  ],
  "asset": {
    "extras": {
      "author": "CsharpGamer (https://sketchfab.com/espinalluis92)",
      "license": "CC-BY-NC-4.0 (http://creativecommons.org/licenses/by-nc/4.0/)",
      "source": "https://sketchfab.com/3d-models/low-poly-890-jump-7b685007d02b40998e468ccc8affc120",
      "title": "Low Poly 890 Jump"
    },
    "generator": "Sketchfab-14.5.0",
    "version": "2.0"
  },
  "bufferViews": [
    {
      "buffer": 0,
      "byteLength": 50160,
      "name": "floatBufferViews",
      "target": 34963
    },
    {
      "buffer": 0,
      "byteLength": 27104,
      "byteOffset": 50160,
      "byteStride": 8,
      "name": "floatBufferViews",
      "target": 34962
    },
    {
      "buffer": 0,
      "byteLength": 81312,
      "byteOffset": 77264,
      "byteStride": 12,
      "name": "floatBufferViews",
      "target": 34962
    },
    {
      "buffer": 0,
      "byteLength": 54208,
      "byteOffset": 158576,
      "byteStride": 16,
      "name": "floatBufferViews",
      "target": 34962
    }
  ],
  "buffers": [
    {
      "byteLength": 212784,
      "uri": "scene.bin"
    }
  ],
  "images": [
    {
      "uri": "textures/890_jump_1_a_mtl_base_plastic_baseColor.png"
    },
    {
      "uri": "textures/890_jump_1_a_mtl_base_plastic_metallicRoughness.png"
    }
  ],
  "materials": [
    {
      "doubleSided": true,
      "name": "890_jump_1_a_mtl_decal_pom",
      "pbrMetallicRoughness": {
        "baseColorFactor": [
          0.0,
          0.0,
          0.0,
          1.0
        ],
        "metallicFactor": 0.0,
        "roughnessFactor": 0.5
      }
    },
    {
      "doubleSided": true,
      "name": "890_jump_1_a_mtl_base_plastic",
      "pbrMetallicRoughness": {
        "baseColorTexture": {
          "index": 0
        },
        "metallicRoughnessTexture": {
          "index": 1
        },
        "roughnessFactor": 0.5
      }
    },
    {
      "doubleSided": true,
      "name": "890_jump_1_a_mtl_metal_trim",
      "pbrMetallicRoughness": {
        "baseColorFactor": [
          0.0,
          0.0,
          0.0,
          1.0
        ],
        "metallicFactor": 0.0,
        "roughnessFactor": 0.5
      }
    },
    {
      "doubleSided": true,
      "name": "890mat",
      "pbrMetallicRoughness": {
        "baseColorTexture": {
          "index": 0
        },
        "roughnessFactor": 0.5
      }
    }
  ],
  "meshes": [
    {
      "name": "Object_0",
      "primitives": [
        {
          "attributes": {
            "COLOR_0": 2,
            "NORMAL": 1,
            "POSITION": 0,
            "TEXCOORD_0": 3
          },
          "indices": 4,
          "material": 0,
          "mode": 4
        }
      ]
    },
    {
      "name": "Object_1",
      "primitives": [
        {
          "attributes": {
            "COLOR_0": 7,
            "NORMAL": 6,
            "POSITION": 5,
            "TEXCOORD_0": 8
          },
          "indices": 9,
          "material": 1,
          "mode": 4
        }
      ]
    },
    {
      "name": "Object_2",
      "primitives": [
        {
          "attributes": {
            "COLOR_0": 12,
            "NORMAL": 11,
            "POSITION": 10,
            "TEXCOORD_0": 13
          },
          "indices": 14,
          "material": 2,
          "mode": 4
        }
      ]
    },
    {
      "name": "Object_3",
      "primitives": [
        {
          "attributes": {
            "COLOR_0": 17,
            "NORMAL": 16,
            "POSITION": 15,
            "TEXCOORD_0": 18
          },
          "indices": 19,
          "material": 3,
          "mode": 4
        }
      ]
    }
  ],
  "nodes": [
    {
      "children": [
        1
      ],
      "matrix": [
        1.0,
        0.0,
        0.0,
        0.0,
        0.0,
        2.220446049250313e-16,
        -1.0,
        0.0,
        0.0,
        1.0,
        2.220446049250313e-16,
        0.0,
        0.0,
        0.0,
        0.0,
        1.0
      ],
      "name": "Sketchfab_model"
    },
    {
      "children": [
        2
      ],
      "name": "root"
    },
    {
      "children": [
        3,
        7
      ],
      "matrix": [
        1.0,
        0.0,
        0.0,
        0.0,
        0.0,
        2.220446049250313e-16,
        1.0,
        0.0,
        0.0,
        -1.0,
        2.220446049250313e-16,
        0.0,
        0.0,
        0.0,
        0.0,
        1.0
      ],
      "name": "GLTF_SceneRootNode"
    },
    {
      "children": [
        4,
        5,
        6
      ],
      "matrix": [
        11.82258415222168,
        0.0,
        0.0,
        0.0,
        0.0,
        11.82258415222168,
        0.0,
        0.0,
        0.0,
        0.0,
        11.82258415222168,
        0.0,
        0.0,
        0.0,
        0.0,
        1.0
      ],
      "name": "Model_base_0"
    },
    {
      "mesh": 0,
      "name": "Object_4"
    },
    {
      "mesh": 1,
      "name": "Object_5"
    },
    {
      "mesh": 2,
      "name": "Object_6"
    },
    {
      "children": [
        8
      ],
      "matrix": [
        11.82258415222168,
        0.0,
        0.0,
        0.0,
        0.0,
        11.82258415222168,
        0.0,
        0.0,
        0.0,
        0.0,
        11.82258415222168,
        0.0,
        0.0,
        0.0,
        0.0,
        1.0
      ],
      "name": "890 jump model_1"
    },
    {
      "mesh": 3,
      "name": "Object_8"
    }
  ],
  "samplers": [
    {
      "magFilter": 9729,
      "minFilter": 9987,
      "wrapS": 10497,
      "wrapT": 10497
    }
  ],
  "scene": 0,
  "scenes": [
    {
      "name": "Sketchfab_Scene",
      "nodes": [
        0
      ]
    }
  ],
  "textures": [
    {
      "sampler": 0,
      "source": 0
    },
    {
      "sampler": 0,
      "source": 1
    }
  ]
}
